# xmcd CD database file
#
# Track frame offsets:
#	150
#	9197
#	25591
#	33576
#	44609
#	53268
#	63843
#	78847
#	90217
#	100458
#	111355
#	125722
#	138255
#	154205
#	166667
#
# Disc length: 2354 seconds
#
# Revision: 2
# Processed by: cddbd v1.5.2PL0 Copyright (c) Steve Scherf et al.
# Submitted via: CDex 1.51
#
DISCID=ac09300f
DTITLE=? - Mojo august 10
DYEAR=1900
DGENRE=MOJO
TTITLE0=? - 1 Audio Track
TTITLE1=? - 2 Audio Track
TTITLE2=? - 3 Audio Track
TTITLE3=? - 4 Audio Track
TTITLE4=? - ? - 5 Audio Track
TTITLE5=? - 6 Audio Track
TTITLE6=? - 7 Audio Track
TTITLE7=? - 8 Audio Track
TTITLE8=? - 9 Audio Track
TTITLE9=? - 10 Audio Track
TTITLE10=? - 11 Audio Track
TTITLE11=? - 12 Audio Track
TTITLE12=? - 13 Audio Track
TTITLE13=? - 14 Audio Track
TTITLE14=15 Audio Track
EXTD=
EXTT0=
EXTT1=
EXTT2=
EXTT3=
EXTT4=
EXTT5=
EXTT6=
EXTT7=
EXTT8=
EXTT9=
EXTT10=
EXTT11=
EXTT12=
EXTT13=
EXTT14=
PLAYORDER=
